<?xml version="1.0" encoding="UTF-8"?>
<svg width="73px" height="63px" viewBox="0 0 73 63" version="1.1" xmlns="http://www.w3.org/2000/svg" xmlns:xlink="http://www.w3.org/1999/xlink">
    <!-- Generator: Sketch 41.2 (35397) - http://www.bohemiancoding.com/sketch -->
    <title>Page 1 Copy 5</title>
    <desc>Created with Sketch.</desc>
    <defs>
        <polygon id="path-1" points="3.31065758e-05 62.5947196 72.8675737 62.5947196 72.8675737 0.0935582409 3.31065758e-05 0.0935582409"></polygon>
    </defs>
    <g id="Symbols" stroke="none" stroke-width="1" fill="none" fill-rule="evenodd">
        <g id="Menu">
            <g id="Page-1-Copy-5">
                <g id="Group-3" transform="translate(0.000000, 0.073444)">
                    <mask id="mask-2" fill="white">
                        <use xlink:href="#path-1"></use>
                    </mask>
                    <g id="Clip-2"></g>
                    <g id="Group" mask="url(#mask-2)" fill="#01FFC7">
                        <path d="M72.8676068,56.0465608 L72.3263143,56.4571822 C71.7999197,56.8561192 71.2718698,57.2650713 70.7570626,57.6756927 L70.3978562,57.9611246 L69.9691261,57.7491372 C69.6347497,57.5803818 69.2556794,57.4987583 68.8153619,57.4987583 C67.1798971,57.4987583 64.9617565,58.6505011 62.8181057,59.7638526 C60.4211896,61.0090702 57.9398517,62.2976868 55.6852939,62.3761389 C54.6391261,62.3294015 54.1574254,61.9504948 53.9273347,61.6416941 C53.0466998,60.4565675 54.2368812,58.2213517 55.6174254,55.6359394 C56.9416884,53.152181 58.5887406,50.0608364 57.4051805,49.077682 C57.2048857,48.8805504 57.0012803,48.808942 56.7082871,48.808942 C55.167176,48.808942 52.0948857,50.7717455 48.6898744,53.9298578 C47.5973574,54.9014947 46.5313256,55.9328888 45.5000558,56.9312328 C42.4674934,59.8673425 40.0705773,62.1875201 38.0411442,62.1923608 C37.4932304,62.1941969 37.0645002,62.0005705 36.791371,61.6483709 C35.0416884,59.3849459 40.3503279,49.8119598 40.9627995,48.7288208 C41.8550218,47.039598 42.8250444,45.3819229 43.7619605,43.7779958 C46.135702,39.7101736 48.3803279,35.8660232 47.5129356,34.4405328 C47.3970626,34.208515 47.2845002,34.1432496 47.0428222,34.1432496 C44.9604186,34.1432496 39.2528449,38.5167009 34.0766317,45.0265518 C31.444659,48.0928584 29.0891261,51.4863268 27.0116884,54.4825274 C23.5090127,59.5350063 21.7427769,61.978871 20.12221,62.0072473 C19.8308721,62.0089165 19.64382,61.9671867 19.4766317,61.8887346 C19.3127542,61.8101157 19.1654299,61.6951083 19.0479016,61.5432118 C17.3677429,59.3882842 21.1882417,46.9561383 26.4852939,37.3482662 C29.0162916,32.257229 32.1018245,27.5217298 34.7851125,23.3170338 C38.2132984,17.9489107 41.8550218,11.7161458 40.0043642,11.969863 C38.502981,12.1768429 35.8958381,13.3002095 32.2508041,16.2246348 C27.1408041,20.2273585 21.2974934,26.7772699 16.6162236,33.7478179 C11.1106,41.7899875 7.22719864,50.2359347 5.40137098,54.5543027 C4.85511247,55.8061971 4.38168844,56.9477578 3.96123492,57.9577862 C2.40522585,61.7067926 2.00463628,62.5948031 1.10579274,62.5948031 C0.296336961,62.5948031 0.10597415,61.7652144 0.013275737,61.3696158 C0.0198970522,60.3681002 0.902187302,53.6746382 4.38665442,45.4805721 C7.94395601,36.7740639 14.0537746,27.1828837 20.7330263,19.8284214 C27.3924141,12.3487697 35.6491941,5.93907046 42.8167678,2.68581423 C46.2913029,1.04165959 49.6681737,0.0935582409 52.0700558,0.0935582409 C53.2304413,0.0935582409 54.054795,0.318899232 54.5265637,0.76123525 C54.8261782,1.04499798 54.9569492,1.39886679 54.9072893,1.78778865 C54.9139107,4.16138042 51.73899,8.06395254 47.3523687,13.452106 C44.3496023,17.1426907 40.9445909,21.3256871 37.9865184,25.7824312 C33.725702,31.6730116 30.8917791,37.1947004 29.5824141,39.96556 C27.5132531,44.3386775 26.8693302,46.7775347 26.909058,47.5069719 C27.8939787,47.2081864 30.4663596,44.4423344 32.5570399,42.1956012 C34.8645683,39.7151812 37.4783324,36.9025918 40.3271533,34.4288484 C45.4239107,29.656627 51.1695569,26.1913833 53.9952032,26.1913833 C55.1158608,26.1913833 55.8657247,26.7038254 56.0560875,27.5985126 C56.7049764,29.79517 54.2766091,33.2403834 51.2026635,37.598645 C50.1118018,39.1459865 48.9845229,40.7467421 47.9333891,42.3840531 C44.2718018,47.7757119 42.0040014,52.8734258 42.6462689,54.253848 C42.7224141,54.4140905 42.8068358,54.4372923 42.8465637,54.4474744 C42.9425728,54.4758506 43.0402372,54.4892042 43.1494889,54.4892042 C44.5498971,54.4892042 46.996473,52.4978575 49.3652485,50.5697732 C50.2591261,49.8438414 51.1827995,49.0910356 52.1147497,48.3849671 C54.553049,46.458719 57.946473,44.1518949 60.2126181,44.1518949 C61.0915977,44.1518949 61.7653166,44.4790566 62.1625955,45.1050038 C63.5133438,46.9043934 61.7404866,49.9573465 60.0288766,52.9118172 C58.8403506,54.9582473 57.4962236,57.2784249 57.9895116,58.1645992 C58.0540694,58.2831119 58.178219,58.4284985 58.5523234,58.5201372 C58.7046136,58.536996 58.8635252,58.5470112 59.029058,58.5470112 C60.6910082,58.5470112 62.6873347,57.6423089 64.6191034,56.7674851 C66.5988766,55.8712956 68.4693982,55.0233458 70.1512122,55.0233458 C70.980532,55.0233458 71.705566,55.2368355 72.304795,55.6541336 L72.8676068,56.0465608 Z M18.1003914,43.3739009 C16.9348744,43.3739009 15.9898472,42.4209589 15.9898472,41.2456805 C15.9898472,40.070402 16.9348744,39.11746 18.1003914,39.11746 C19.2659084,39.11746 20.2109356,40.070402 20.2109356,41.2456805 C20.2109356,42.4209589 19.2659084,43.3739009 18.1003914,43.3739009 Z" id="Combined-Shape"></path>
                    </g>
                </g>
            </g>
        </g>
    </g>
</svg>